<svg width="332" height="332" viewBox="0 0 332 332" fill="none" xmlns="http://www.w3.org/2000/svg">
<path fill-rule="evenodd" clip-rule="evenodd" d="M164.923 101.881C131.11 146.401 131.306 203.282 165.36 228.927C174.309 235.667 184.707 239.579 195.787 240.875C164.356 266.368 128.151 274.279 103.705 257.675C70.1784 234.904 71.4639 174.647 106.576 123.088C135.895 80.0339 179.53 56.6586 212.649 63.3761C195.156 71.1026 178.364 84.1831 164.923 101.881ZM209.351 158.739C193.56 173.643 175.512 183.55 160.274 186.845C169.271 218.962 203.857 221.431 203.857 221.431C203.857 221.431 224.44 216.704 239.983 181.83C252.781 153.111 251.666 123.437 238.765 108.335C237.694 122.931 227.161 141.932 209.351 158.739Z" fill="white"/>
</svg>
