<!--

https://github.com/datalog/qrcode-svg

--><svg viewBox="0 0 41 41" width="256" height="256" fill="#000000" shape-rendering="crispEdges" xmlns="http://www.w3.org/2000/svg" version="1.1"><path transform="matrix(1,0,0,1,4,4)" d="M31,32h1v1h-1v-1zM22,32h6v1h-6v-1zM18,32h2v1h-2v-1zM13,32h3v1h-3v-1zM11,32h1v1h-1v-1zM9,32h1v1h-1v-1zM0,32h7v1h-7v-1zM27,31h4v1h-4v-1zM22,31h2v1h-2v-1zM20,31h1v1h-1v-1zM18,31h1v1h-1v-1zM13,31h2v1h-2v-1zM8,31h3v1h-3v-1zM6,31h1v1h-1v-1zM0,31h1v1h-1v-1zM31,30h2v1h-2v-1zM27,30h2v1h-2v-1zM24,30h1v1h-1v-1zM19,30h3v1h-3v-1zM17,30h1v1h-1v-1zM9,30h2v1h-2v-1zM6,30h1v1h-1v-1zM2,30h3v1h-3v-1zM0,30h1v1h-1v-1zM32,29h1v1h-1v-1zM30,29h1v1h-1v-1zM27,29h2v1h-2v-1zM25,29h1v1h-1v-1zM23,29h1v1h-1v-1zM20,29h1v1h-1v-1zM15,29h2v1h-2v-1zM12,29h1v1h-1v-1zM9,29h1v1h-1v-1zM6,29h1v1h-1v-1zM2,29h3v1h-3v-1zM0,29h1v1h-1v-1zM31,28h2v1h-2v-1zM24,28h6v1h-6v-1zM22,28h1v1h-1v-1zM20,28h1v1h-1v-1zM15,28h1v1h-1v-1zM12,28h1v1h-1v-1zM9,28h2v1h-2v-1zM6,28h1v1h-1v-1zM2,28h3v1h-3v-1zM0,28h1v1h-1v-1zM28,27h5v1h-5v-1zM22,27h3v1h-3v-1zM19,27h2v1h-2v-1zM12,27h3v1h-3v-1zM9,27h2v1h-2v-1zM6,27h1v1h-1v-1zM0,27h1v1h-1v-1zM30,26h1v1h-1v-1zM28,26h1v1h-1v-1zM26,26h1v1h-1v-1zM23,26h2v1h-2v-1zM13,26h4v1h-4v-1zM10,26h1v1h-1v-1zM8,26h1v1h-1v-1zM0,26h7v1h-7v-1zM32,25h1v1h-1v-1zM30,25h1v1h-1v-1zM28,25h1v1h-1v-1zM19,25h6v1h-6v-1zM17,25h1v1h-1v-1zM14,25h2v1h-2v-1zM12,25h1v1h-1v-1zM8,25h2v1h-2v-1zM31,24h1v1h-1v-1zM23,24h7v1h-7v-1zM20,24h1v1h-1v-1zM17,24h2v1h-2v-1zM12,24h4v1h-4v-1zM10,24h1v1h-1v-1zM8,24h1v1h-1v-1zM6,24h1v1h-1v-1zM0,24h5v1h-5v-1zM28,23h5v1h-5v-1zM25,23h2v1h-2v-1zM19,23h1v1h-1v-1zM16,23h2v1h-2v-1zM11,23h2v1h-2v-1zM7,23h3v1h-3v-1zM2,23h1v1h-1v-1zM0,23h1v1h-1v-1zM30,22h2v1h-2v-1zM27,22h1v1h-1v-1zM24,22h2v1h-2v-1zM21,22h2v1h-2v-1zM15,22h4v1h-4v-1zM13,22h1v1h-1v-1zM10,22h1v1h-1v-1zM8,22h1v1h-1v-1zM5,22h2v1h-2v-1zM2,22h2v1h-2v-1zM0,22h1v1h-1v-1zM28,21h3v1h-3v-1zM25,21h2v1h-2v-1zM22,21h1v1h-1v-1zM16,21h1v1h-1v-1zM12,21h3v1h-3v-1zM7,21h3v1h-3v-1zM3,21h2v1h-2v-1zM0,21h2v1h-2v-1zM31,20h2v1h-2v-1zM28,20h2v1h-2v-1zM25,20h1v1h-1v-1zM20,20h3v1h-3v-1zM18,20h1v1h-1v-1zM11,20h1v1h-1v-1zM8,20h2v1h-2v-1zM5,20h2v1h-2v-1zM1,20h3v1h-3v-1zM28,19h5v1h-5v-1zM25,19h1v1h-1v-1zM22,19h2v1h-2v-1zM20,19h1v1h-1v-1zM17,19h1v1h-1v-1zM14,19h2v1h-2v-1zM10,19h1v1h-1v-1zM8,19h1v1h-1v-1zM1,19h3v1h-3v-1zM32,18h1v1h-1v-1zM29,18h2v1h-2v-1zM27,18h1v1h-1v-1zM23,18h1v1h-1v-1zM21,18h1v1h-1v-1zM18,18h2v1h-2v-1zM14,18h2v1h-2v-1zM11,18h2v1h-2v-1zM8,18h2v1h-2v-1zM5,18h2v1h-2v-1zM3,18h1v1h-1v-1zM0,18h2v1h-2v-1zM29,17h4v1h-4v-1zM22,17h5v1h-5v-1zM15,17h5v1h-5v-1zM12,17h2v1h-2v-1zM7,17h1v1h-1v-1zM4,17h2v1h-2v-1zM1,17h1v1h-1v-1zM32,16h1v1h-1v-1zM27,16h3v1h-3v-1zM24,16h2v1h-2v-1zM22,16h1v1h-1v-1zM19,16h1v1h-1v-1zM17,16h1v1h-1v-1zM12,16h2v1h-2v-1zM5,16h4v1h-4v-1zM3,16h1v1h-1v-1zM0,16h2v1h-2v-1zM32,15h1v1h-1v-1zM29,15h2v1h-2v-1zM27,15h1v1h-1v-1zM24,15h2v1h-2v-1zM20,15h1v1h-1v-1zM18,15h1v1h-1v-1zM16,15h1v1h-1v-1zM14,15h1v1h-1v-1zM12,15h1v1h-1v-1zM8,15h3v1h-3v-1zM2,15h1v1h-1v-1zM28,14h4v1h-4v-1zM25,14h2v1h-2v-1zM20,14h3v1h-3v-1zM13,14h1v1h-1v-1zM9,14h2v1h-2v-1zM3,14h5v1h-5v-1zM0,14h1v1h-1v-1zM30,13h3v1h-3v-1zM25,13h3v1h-3v-1zM22,13h1v1h-1v-1zM18,13h1v1h-1v-1zM16,13h1v1h-1v-1zM7,13h2v1h-2v-1zM4,13h1v1h-1v-1zM2,13h1v1h-1v-1zM0,13h1v1h-1v-1zM32,12h1v1h-1v-1zM25,12h2v1h-2v-1zM20,12h1v1h-1v-1zM16,12h2v1h-2v-1zM14,12h1v1h-1v-1zM10,12h1v1h-1v-1zM4,12h4v1h-4v-1zM26,11h7v1h-7v-1zM23,11h1v1h-1v-1zM17,11h4v1h-4v-1zM14,11h2v1h-2v-1zM10,11h3v1h-3v-1zM7,11h2v1h-2v-1zM3,11h2v1h-2v-1zM0,11h2v1h-2v-1zM30,10h2v1h-2v-1zM28,10h1v1h-1v-1zM24,10h2v1h-2v-1zM17,10h1v1h-1v-1zM12,10h2v1h-2v-1zM6,10h2v1h-2v-1zM2,10h2v1h-2v-1zM28,9h3v1h-3v-1zM23,9h1v1h-1v-1zM21,9h1v1h-1v-1zM15,9h5v1h-5v-1zM13,9h1v1h-1v-1zM9,9h2v1h-2v-1zM0,9h5v1h-5v-1zM31,8h2v1h-2v-1zM25,8h1v1h-1v-1zM22,8h2v1h-2v-1zM19,8h1v1h-1v-1zM17,8h1v1h-1v-1zM13,8h2v1h-2v-1zM6,8h6v1h-6v-1zM1,8h1v1h-1v-1zM22,7h2v1h-2v-1zM19,7h2v1h-2v-1zM15,7h2v1h-2v-1zM13,7h1v1h-1v-1zM9,7h3v1h-3v-1zM26,6h7v1h-7v-1zM24,6h1v1h-1v-1zM22,6h1v1h-1v-1zM20,6h1v1h-1v-1zM18,6h1v1h-1v-1zM16,6h1v1h-1v-1zM14,6h1v1h-1v-1zM12,6h1v1h-1v-1zM10,6h1v1h-1v-1zM8,6h1v1h-1v-1zM0,6h7v1h-7v-1zM32,5h1v1h-1v-1zM26,5h1v1h-1v-1zM21,5h2v1h-2v-1zM19,5h1v1h-1v-1zM16,5h2v1h-2v-1zM11,5h1v1h-1v-1zM9,5h1v1h-1v-1zM6,5h1v1h-1v-1zM0,5h1v1h-1v-1zM32,4h1v1h-1v-1zM28,4h3v1h-3v-1zM26,4h1v1h-1v-1zM23,4h2v1h-2v-1zM20,4h1v1h-1v-1zM13,4h5v1h-5v-1zM11,4h1v1h-1v-1zM6,4h1v1h-1v-1zM2,4h3v1h-3v-1zM0,4h1v1h-1v-1zM32,3h1v1h-1v-1zM28,3h3v1h-3v-1zM26,3h1v1h-1v-1zM23,3h1v1h-1v-1zM20,3h2v1h-2v-1zM18,3h1v1h-1v-1zM14,3h1v1h-1v-1zM10,3h1v1h-1v-1zM6,3h1v1h-1v-1zM2,3h3v1h-3v-1zM0,3h1v1h-1v-1zM32,2h1v1h-1v-1zM28,2h3v1h-3v-1zM26,2h1v1h-1v-1zM24,2h1v1h-1v-1zM21,2h1v1h-1v-1zM19,2h1v1h-1v-1zM15,2h2v1h-2v-1zM12,2h1v1h-1v-1zM10,2h1v1h-1v-1zM6,2h1v1h-1v-1zM2,2h3v1h-3v-1zM0,2h1v1h-1v-1zM32,1h1v1h-1v-1zM26,1h1v1h-1v-1zM20,1h3v1h-3v-1zM18,1h1v1h-1v-1zM16,1h1v1h-1v-1zM12,1h1v1h-1v-1zM10,1h1v1h-1v-1zM8,1h1v1h-1v-1zM6,1h1v1h-1v-1zM0,1h1v1h-1v-1zM26,0h7v1h-7v-1zM21,0h2v1h-2v-1zM16,0h3v1h-3v-1zM14,0h1v1h-1v-1zM10,0h1v1h-1v-1zM8,0h1v1h-1v-1zM0,0h7v1h-7v-1z"/></svg>