<!--

https://github.com/datalog/qrcode-svg

--><svg viewBox="0 0 33 33" width="256" height="256" fill="#000000" shape-rendering="crispEdges" xmlns="http://www.w3.org/2000/svg" version="1.1"><path transform="matrix(1,0,0,1,4,4)" d="M22,24h3v1h-3v-1zM20,24h1v1h-1v-1zM17,24h2v1h-2v-1zM13,24h2v1h-2v-1zM8,24h1v1h-1v-1zM0,24h7v1h-7v-1zM24,23h1v1h-1v-1zM20,23h2v1h-2v-1zM14,23h4v1h-4v-1zM12,23h1v1h-1v-1zM9,23h2v1h-2v-1zM6,23h1v1h-1v-1zM0,23h1v1h-1v-1zM24,22h1v1h-1v-1zM22,22h1v1h-1v-1zM19,22h1v1h-1v-1zM15,22h1v1h-1v-1zM12,22h1v1h-1v-1zM8,22h3v1h-3v-1zM6,22h1v1h-1v-1zM2,22h3v1h-3v-1zM0,22h1v1h-1v-1zM22,21h3v1h-3v-1zM17,21h4v1h-4v-1zM11,21h1v1h-1v-1zM8,21h1v1h-1v-1zM6,21h1v1h-1v-1zM2,21h3v1h-3v-1zM0,21h1v1h-1v-1zM13,20h10v1h-10v-1zM8,20h3v1h-3v-1zM6,20h1v1h-1v-1zM2,20h3v1h-3v-1zM0,20h1v1h-1v-1zM23,19h2v1h-2v-1zM20,19h1v1h-1v-1zM16,19h1v1h-1v-1zM12,19h1v1h-1v-1zM10,19h1v1h-1v-1zM8,19h1v1h-1v-1zM6,19h1v1h-1v-1zM0,19h1v1h-1v-1zM23,18h2v1h-2v-1zM20,18h2v1h-2v-1zM18,18h1v1h-1v-1zM16,18h1v1h-1v-1zM12,18h3v1h-3v-1zM9,18h2v1h-2v-1zM0,18h7v1h-7v-1zM20,17h1v1h-1v-1zM15,17h2v1h-2v-1zM12,17h2v1h-2v-1zM10,17h1v1h-1v-1zM8,17h1v1h-1v-1zM22,16h2v1h-2v-1zM16,16h5v1h-5v-1zM11,16h3v1h-3v-1zM9,16h1v1h-1v-1zM4,16h3v1h-3v-1zM2,16h1v1h-1v-1zM0,16h1v1h-1v-1zM23,15h2v1h-2v-1zM18,15h2v1h-2v-1zM16,15h1v1h-1v-1zM14,15h1v1h-1v-1zM8,15h4v1h-4v-1zM4,15h1v1h-1v-1zM0,15h1v1h-1v-1zM23,14h2v1h-2v-1zM21,14h1v1h-1v-1zM17,14h1v1h-1v-1zM15,14h1v1h-1v-1zM11,14h2v1h-2v-1zM4,14h4v1h-4v-1zM2,14h1v1h-1v-1zM0,14h1v1h-1v-1zM22,13h1v1h-1v-1zM19,13h1v1h-1v-1zM16,13h1v1h-1v-1zM13,13h1v1h-1v-1zM10,13h1v1h-1v-1zM7,13h2v1h-2v-1zM0,13h3v1h-3v-1zM24,12h1v1h-1v-1zM20,12h3v1h-3v-1zM17,12h2v1h-2v-1zM12,12h3v1h-3v-1zM9,12h1v1h-1v-1zM3,12h4v1h-4v-1zM1,12h1v1h-1v-1zM23,11h2v1h-2v-1zM20,11h1v1h-1v-1zM18,11h1v1h-1v-1zM16,11h1v1h-1v-1zM12,11h1v1h-1v-1zM8,11h2v1h-2v-1zM3,11h3v1h-3v-1zM23,10h2v1h-2v-1zM19,10h1v1h-1v-1zM17,10h1v1h-1v-1zM15,10h1v1h-1v-1zM10,10h4v1h-4v-1zM6,10h3v1h-3v-1zM4,10h1v1h-1v-1zM0,10h2v1h-2v-1zM21,9h2v1h-2v-1zM19,9h1v1h-1v-1zM14,9h3v1h-3v-1zM9,9h2v1h-2v-1zM7,9h1v1h-1v-1zM2,9h2v1h-2v-1zM0,9h1v1h-1v-1zM18,8h5v1h-5v-1zM11,8h5v1h-5v-1zM9,8h1v1h-1v-1zM2,8h5v1h-5v-1zM0,8h1v1h-1v-1zM14,7h2v1h-2v-1zM12,7h1v1h-1v-1zM10,7h1v1h-1v-1zM8,7h1v1h-1v-1zM18,6h7v1h-7v-1zM16,6h1v1h-1v-1zM14,6h1v1h-1v-1zM12,6h1v1h-1v-1zM10,6h1v1h-1v-1zM8,6h1v1h-1v-1zM0,6h7v1h-7v-1zM24,5h1v1h-1v-1zM18,5h1v1h-1v-1zM14,5h2v1h-2v-1zM12,5h1v1h-1v-1zM8,5h1v1h-1v-1zM6,5h1v1h-1v-1zM0,5h1v1h-1v-1zM24,4h1v1h-1v-1zM20,4h3v1h-3v-1zM18,4h1v1h-1v-1zM16,4h1v1h-1v-1zM14,4h1v1h-1v-1zM8,4h1v1h-1v-1zM6,4h1v1h-1v-1zM2,4h3v1h-3v-1zM0,4h1v1h-1v-1zM24,3h1v1h-1v-1zM20,3h3v1h-3v-1zM18,3h1v1h-1v-1zM10,3h7v1h-7v-1zM8,3h1v1h-1v-1zM6,3h1v1h-1v-1zM2,3h3v1h-3v-1zM0,3h1v1h-1v-1zM24,2h1v1h-1v-1zM20,2h3v1h-3v-1zM18,2h1v1h-1v-1zM14,2h3v1h-3v-1zM11,2h1v1h-1v-1zM8,2h2v1h-2v-1zM6,2h1v1h-1v-1zM2,2h3v1h-3v-1zM0,2h1v1h-1v-1zM24,1h1v1h-1v-1zM18,1h1v1h-1v-1zM15,1h1v1h-1v-1zM12,1h1v1h-1v-1zM6,1h1v1h-1v-1zM0,1h1v1h-1v-1zM18,0h7v1h-7v-1zM16,0h1v1h-1v-1zM11,0h1v1h-1v-1zM9,0h1v1h-1v-1zM0,0h7v1h-7v-1z"/></svg>