<!--

https://github.com/datalog/qrcode-svg

--><svg viewBox="0 0 45 45" width="256" height="256" fill="#000000" shape-rendering="crispEdges" xmlns="http://www.w3.org/2000/svg" version="1.1"><path transform="matrix(1,0,0,1,4,4)" d="M33,36h4v1h-4v-1zM29,36h3v1h-3v-1zM26,36h2v1h-2v-1zM23,36h2v1h-2v-1zM21,36h1v1h-1v-1zM19,36h1v1h-1v-1zM17,36h1v1h-1v-1zM15,36h1v1h-1v-1zM12,36h2v1h-2v-1zM10,36h1v1h-1v-1zM8,36h1v1h-1v-1zM0,36h7v1h-7v-1zM34,35h2v1h-2v-1zM32,35h1v1h-1v-1zM28,35h1v1h-1v-1zM26,35h1v1h-1v-1zM23,35h2v1h-2v-1zM21,35h1v1h-1v-1zM17,35h2v1h-2v-1zM14,35h1v1h-1v-1zM9,35h1v1h-1v-1zM6,35h1v1h-1v-1zM0,35h1v1h-1v-1zM29,34h2v1h-2v-1zM26,34h2v1h-2v-1zM20,34h5v1h-5v-1zM16,34h3v1h-3v-1zM14,34h1v1h-1v-1zM9,34h3v1h-3v-1zM6,34h1v1h-1v-1zM2,34h3v1h-3v-1zM0,34h1v1h-1v-1zM36,33h1v1h-1v-1zM33,33h2v1h-2v-1zM29,33h3v1h-3v-1zM25,33h3v1h-3v-1zM23,33h1v1h-1v-1zM19,33h3v1h-3v-1zM16,33h1v1h-1v-1zM11,33h2v1h-2v-1zM9,33h1v1h-1v-1zM6,33h1v1h-1v-1zM2,33h3v1h-3v-1zM0,33h1v1h-1v-1zM28,32h9v1h-9v-1zM22,32h3v1h-3v-1zM18,32h2v1h-2v-1zM14,32h2v1h-2v-1zM8,32h3v1h-3v-1zM6,32h1v1h-1v-1zM2,32h3v1h-3v-1zM0,32h1v1h-1v-1zM36,31h1v1h-1v-1zM32,31h3v1h-3v-1zM28,31h1v1h-1v-1zM24,31h1v1h-1v-1zM22,31h1v1h-1v-1zM17,31h3v1h-3v-1zM6,31h1v1h-1v-1zM0,31h1v1h-1v-1zM32,30h1v1h-1v-1zM30,30h1v1h-1v-1zM28,30h1v1h-1v-1zM23,30h2v1h-2v-1zM14,30h4v1h-4v-1zM12,30h1v1h-1v-1zM8,30h3v1h-3v-1zM0,30h7v1h-7v-1zM35,29h2v1h-2v-1zM32,29h1v1h-1v-1zM28,29h1v1h-1v-1zM25,29h2v1h-2v-1zM20,29h4v1h-4v-1zM18,29h1v1h-1v-1zM15,29h2v1h-2v-1zM10,29h2v1h-2v-1zM8,29h1v1h-1v-1zM36,28h1v1h-1v-1zM27,28h7v1h-7v-1zM21,28h1v1h-1v-1zM17,28h1v1h-1v-1zM14,28h1v1h-1v-1zM6,28h4v1h-4v-1zM4,28h1v1h-1v-1zM0,28h2v1h-2v-1zM34,27h3v1h-3v-1zM29,27h1v1h-1v-1zM23,27h2v1h-2v-1zM19,27h3v1h-3v-1zM15,27h3v1h-3v-1zM11,27h3v1h-3v-1zM7,27h2v1h-2v-1zM31,26h3v1h-3v-1zM26,26h2v1h-2v-1zM23,26h2v1h-2v-1zM21,26h1v1h-1v-1zM17,26h3v1h-3v-1zM15,26h1v1h-1v-1zM11,26h1v1h-1v-1zM9,26h1v1h-1v-1zM5,26h3v1h-3v-1zM32,25h3v1h-3v-1zM27,25h2v1h-2v-1zM25,25h1v1h-1v-1zM21,25h3v1h-3v-1zM18,25h2v1h-2v-1zM11,25h1v1h-1v-1zM0,25h2v1h-2v-1zM33,24h3v1h-3v-1zM29,24h3v1h-3v-1zM24,24h1v1h-1v-1zM19,24h2v1h-2v-1zM11,24h6v1h-6v-1zM4,24h4v1h-4v-1zM36,23h1v1h-1v-1zM34,23h1v1h-1v-1zM30,23h3v1h-3v-1zM26,23h3v1h-3v-1zM24,23h1v1h-1v-1zM20,23h2v1h-2v-1zM15,23h2v1h-2v-1zM12,23h1v1h-1v-1zM10,23h1v1h-1v-1zM7,23h1v1h-1v-1zM4,23h2v1h-2v-1zM1,23h2v1h-2v-1zM31,22h4v1h-4v-1zM29,22h1v1h-1v-1zM25,22h3v1h-3v-1zM21,22h3v1h-3v-1zM18,22h1v1h-1v-1zM14,22h2v1h-2v-1zM12,22h1v1h-1v-1zM0,22h9v1h-9v-1zM31,21h2v1h-2v-1zM26,21h2v1h-2v-1zM23,21h2v1h-2v-1zM20,21h1v1h-1v-1zM13,21h6v1h-6v-1zM7,21h3v1h-3v-1zM5,21h1v1h-1v-1zM3,21h1v1h-1v-1zM1,21h1v1h-1v-1zM34,20h1v1h-1v-1zM29,20h3v1h-3v-1zM23,20h2v1h-2v-1zM21,20h1v1h-1v-1zM19,20h1v1h-1v-1zM17,20h1v1h-1v-1zM15,20h1v1h-1v-1zM13,20h1v1h-1v-1zM10,20h1v1h-1v-1zM8,20h1v1h-1v-1zM5,20h2v1h-2v-1zM0,20h4v1h-4v-1zM34,19h2v1h-2v-1zM31,19h2v1h-2v-1zM27,19h1v1h-1v-1zM24,19h1v1h-1v-1zM21,19h1v1h-1v-1zM17,19h1v1h-1v-1zM11,19h3v1h-3v-1zM7,19h1v1h-1v-1zM1,19h1v1h-1v-1zM34,18h1v1h-1v-1zM31,18h2v1h-2v-1zM25,18h4v1h-4v-1zM22,18h2v1h-2v-1zM20,18h1v1h-1v-1zM16,18h1v1h-1v-1zM13,18h2v1h-2v-1zM10,18h1v1h-1v-1zM6,18h1v1h-1v-1zM2,18h2v1h-2v-1zM0,18h1v1h-1v-1zM35,17h1v1h-1v-1zM32,17h2v1h-2v-1zM26,17h3v1h-3v-1zM23,17h1v1h-1v-1zM19,17h2v1h-2v-1zM16,17h1v1h-1v-1zM14,17h1v1h-1v-1zM10,17h2v1h-2v-1zM7,17h1v1h-1v-1zM1,17h2v1h-2v-1zM33,16h3v1h-3v-1zM29,16h2v1h-2v-1zM27,16h1v1h-1v-1zM22,16h2v1h-2v-1zM18,16h1v1h-1v-1zM15,16h1v1h-1v-1zM12,16h1v1h-1v-1zM8,16h2v1h-2v-1zM5,16h2v1h-2v-1zM36,15h1v1h-1v-1zM34,15h1v1h-1v-1zM29,15h4v1h-4v-1zM24,15h1v1h-1v-1zM22,15h1v1h-1v-1zM17,15h2v1h-2v-1zM11,15h3v1h-3v-1zM9,15h1v1h-1v-1zM2,15h2v1h-2v-1zM0,15h1v1h-1v-1zM31,14h4v1h-4v-1zM26,14h4v1h-4v-1zM23,14h2v1h-2v-1zM20,14h1v1h-1v-1zM15,14h3v1h-3v-1zM13,14h1v1h-1v-1zM6,14h1v1h-1v-1zM2,14h2v1h-2v-1zM0,14h1v1h-1v-1zM35,13h1v1h-1v-1zM32,13h2v1h-2v-1zM26,13h3v1h-3v-1zM20,13h5v1h-5v-1zM15,13h2v1h-2v-1zM13,13h1v1h-1v-1zM5,13h1v1h-1v-1zM3,13h1v1h-1v-1zM0,13h1v1h-1v-1zM34,12h3v1h-3v-1zM29,12h3v1h-3v-1zM26,12h1v1h-1v-1zM20,12h2v1h-2v-1zM17,12h1v1h-1v-1zM9,12h3v1h-3v-1zM4,12h4v1h-4v-1zM0,12h2v1h-2v-1zM34,11h2v1h-2v-1zM31,11h1v1h-1v-1zM26,11h2v1h-2v-1zM23,11h2v1h-2v-1zM14,11h8v1h-8v-1zM11,11h2v1h-2v-1zM9,11h1v1h-1v-1zM7,11h1v1h-1v-1zM0,11h6v1h-6v-1zM33,10h2v1h-2v-1zM30,10h2v1h-2v-1zM27,10h1v1h-1v-1zM25,10h1v1h-1v-1zM22,10h2v1h-2v-1zM19,10h1v1h-1v-1zM17,10h1v1h-1v-1zM15,10h1v1h-1v-1zM12,10h1v1h-1v-1zM6,10h5v1h-5v-1zM3,10h1v1h-1v-1zM35,9h1v1h-1v-1zM32,9h1v1h-1v-1zM24,9h6v1h-6v-1zM22,9h1v1h-1v-1zM18,9h2v1h-2v-1zM13,9h2v1h-2v-1zM9,9h3v1h-3v-1zM7,9h1v1h-1v-1zM5,9h1v1h-1v-1zM2,9h1v1h-1v-1zM0,9h1v1h-1v-1zM36,8h1v1h-1v-1zM28,8h6v1h-6v-1zM24,8h1v1h-1v-1zM20,8h1v1h-1v-1zM16,8h1v1h-1v-1zM11,8h1v1h-1v-1zM6,8h3v1h-3v-1zM4,8h1v1h-1v-1zM0,8h1v1h-1v-1zM28,7h1v1h-1v-1zM26,7h1v1h-1v-1zM20,7h2v1h-2v-1zM15,7h2v1h-2v-1zM11,7h2v1h-2v-1zM8,7h2v1h-2v-1zM30,6h7v1h-7v-1zM28,6h1v1h-1v-1zM26,6h1v1h-1v-1zM24,6h1v1h-1v-1zM22,6h1v1h-1v-1zM20,6h1v1h-1v-1zM18,6h1v1h-1v-1zM16,6h1v1h-1v-1zM14,6h1v1h-1v-1zM12,6h1v1h-1v-1zM10,6h1v1h-1v-1zM8,6h1v1h-1v-1zM0,6h7v1h-7v-1zM36,5h1v1h-1v-1zM30,5h1v1h-1v-1zM28,5h1v1h-1v-1zM25,5h1v1h-1v-1zM19,5h1v1h-1v-1zM15,5h3v1h-3v-1zM10,5h2v1h-2v-1zM8,5h1v1h-1v-1zM6,5h1v1h-1v-1zM0,5h1v1h-1v-1zM36,4h1v1h-1v-1zM32,4h3v1h-3v-1zM30,4h1v1h-1v-1zM23,4h6v1h-6v-1zM17,4h2v1h-2v-1zM12,4h2v1h-2v-1zM10,4h1v1h-1v-1zM8,4h1v1h-1v-1zM6,4h1v1h-1v-1zM2,4h3v1h-3v-1zM0,4h1v1h-1v-1zM36,3h1v1h-1v-1zM32,3h3v1h-3v-1zM30,3h1v1h-1v-1zM24,3h5v1h-5v-1zM18,3h1v1h-1v-1zM8,3h2v1h-2v-1zM6,3h1v1h-1v-1zM2,3h3v1h-3v-1zM0,3h1v1h-1v-1zM36,2h1v1h-1v-1zM32,2h3v1h-3v-1zM30,2h1v1h-1v-1zM26,2h1v1h-1v-1zM24,2h1v1h-1v-1zM21,2h2v1h-2v-1zM17,2h1v1h-1v-1zM13,2h2v1h-2v-1zM9,2h1v1h-1v-1zM6,2h1v1h-1v-1zM2,2h3v1h-3v-1zM0,2h1v1h-1v-1zM36,1h1v1h-1v-1zM30,1h1v1h-1v-1zM26,1h1v1h-1v-1zM22,1h3v1h-3v-1zM18,1h2v1h-2v-1zM15,1h2v1h-2v-1zM12,1h1v1h-1v-1zM10,1h1v1h-1v-1zM6,1h1v1h-1v-1zM0,1h1v1h-1v-1zM30,0h7v1h-7v-1zM25,0h4v1h-4v-1zM19,0h2v1h-2v-1zM16,0h2v1h-2v-1zM14,0h1v1h-1v-1zM11,0h1v1h-1v-1zM8,0h1v1h-1v-1zM0,0h7v1h-7v-1z"/></svg>