<svg width="463" height="140" viewBox="0 0 463 140" fill="none" xmlns="http://www.w3.org/2000/svg">
<path d="M235.537 117.197C234.634 117.197 233.821 116.881 233.098 116.249C232.466 115.526 232.15 114.713 232.15 113.81V43.6267H208.033C207.129 43.6267 206.317 43.3106 205.594 42.6783C204.962 41.9557 204.646 41.1427 204.646 40.2395V25.7421C204.646 24.7485 204.962 23.9356 205.594 23.3033C206.317 22.671 207.129 22.3549 208.033 22.3549H280.926C281.92 22.3549 282.732 22.671 283.365 23.3033C283.997 23.9356 284.313 24.7485 284.313 25.7421V40.2395C284.313 41.2331 283.997 42.046 283.365 42.6783C282.732 43.3106 281.92 43.6267 280.926 43.6267H256.809V113.81C256.809 114.713 256.493 115.526 255.86 116.249C255.228 116.881 254.415 117.197 253.422 117.197H235.537Z" fill="#F6F6F6"/>
<path d="M281.548 117.197C280.826 117.197 280.148 116.926 279.516 116.384C278.974 115.752 278.703 115.075 278.703 114.352C278.703 113.81 278.748 113.404 278.839 113.133L310.678 26.1486C310.949 25.0647 311.537 24.1614 312.44 23.4388C313.343 22.7162 314.517 22.3549 315.963 22.3549H336.015C337.46 22.3549 338.634 22.7162 339.538 23.4388C340.441 24.1614 341.028 25.0647 341.299 26.1486L373.004 113.133L373.275 114.352C373.275 115.075 372.958 115.752 372.326 116.384C371.784 116.926 371.107 117.197 370.294 117.197H353.629C351.461 117.197 350.016 116.249 349.293 114.352L344.009 100.532H307.833L302.685 114.352C301.962 116.249 300.472 117.197 298.214 117.197H281.548ZM338.589 81.0217L325.989 45.2526L313.388 81.0217H338.589Z" fill="#F6F6F6"/>
<path d="M420.719 118.552C407.983 118.552 397.957 115.436 390.64 109.203C383.324 102.971 379.44 93.8029 378.988 81.6992C378.898 79.0797 378.853 75.1957 378.853 70.0471C378.853 64.8082 378.898 60.879 378.988 58.2595C379.44 46.3365 383.369 37.1684 390.776 30.7552C398.273 24.2517 408.254 21 420.719 21C433.184 21 443.165 24.2517 450.662 30.7552C458.159 37.1684 462.088 46.3365 462.45 58.2595C462.63 63.4984 462.721 67.4276 462.721 70.0471C462.721 72.5762 462.63 76.4602 462.45 81.6992C461.998 93.8029 458.114 102.971 450.798 109.203C443.481 115.436 433.455 118.552 420.719 118.552ZM420.719 99.0418C425.687 99.0418 429.616 97.5514 432.507 94.5706C435.487 91.5899 437.068 87.0284 437.249 80.8862C437.429 75.6473 437.52 71.9439 437.52 69.7761C437.52 67.4276 437.429 63.7243 437.249 58.666C437.068 52.5238 435.487 47.9624 432.507 44.9816C429.526 42.0008 425.597 40.5104 420.719 40.5104C415.841 40.5104 411.912 42.0008 408.931 44.9816C406.041 47.9624 404.46 52.5238 404.189 58.666C404.099 61.1951 404.054 64.8985 404.054 69.7761C404.054 74.5634 404.099 78.2668 404.189 80.8862C404.46 87.0284 406.041 91.5899 408.931 94.5706C411.822 97.5514 415.751 99.0418 420.719 99.0418Z" fill="#F6F6F6"/>
<ellipse cx="69.9409" cy="69.8225" rx="18.2869" ry="18.2869" transform="rotate(180 69.9409 69.8225)" fill="#24C8DB"/>
<path d="M129.645 69.8229C135.168 69.8229 139.719 74.3226 138.93 79.7889C137.449 90.0602 133.69 99.916 127.878 108.614C120.206 120.097 109.301 129.046 96.5426 134.331C83.7842 139.615 69.7451 140.998 56.2009 138.304C42.6566 135.61 30.2154 128.96 20.4505 119.195C10.6857 109.43 4.03571 96.9888 1.34159 83.4446C-1.35252 69.9003 0.030202 55.8613 5.31492 43.1029C10.5996 30.3444 19.549 19.4396 31.0313 11.7674C39.7295 5.95547 49.5853 2.19631 59.8566 0.71506C65.3229 -0.0732497 69.8227 4.47736 69.8226 10.0002L69.8226 10.7582C69.8226 16.281 65.3001 20.6558 59.8916 21.7737C53.7327 23.0467 47.8446 25.4985 42.5638 29.0271C34.4951 34.4184 28.2064 42.0812 24.4928 51.0466C20.7792 60.012 19.8076 69.8773 21.7007 79.3949C23.5939 88.9125 28.2668 97.655 35.1287 104.517C41.9905 111.379 50.733 116.052 60.2506 117.945C69.7682 119.838 79.6334 118.866 88.5988 115.153C97.5642 111.439 105.227 105.15 110.618 97.0817C114.147 91.8009 116.599 85.9128 117.872 79.7539C118.99 74.3454 123.364 69.8229 128.887 69.8229L129.645 69.8229Z" fill="#24C8DB"/>
</svg>
