<!--

https://github.com/datalog/qrcode-svg

--><svg viewBox="0 0 41 41" width="256" height="256" fill="#000000" shape-rendering="crispEdges" xmlns="http://www.w3.org/2000/svg" version="1.1"><path transform="matrix(1,0,0,1,4,4)" d="M31,32h1v1h-1v-1zM28,32h2v1h-2v-1zM24,32h3v1h-3v-1zM21,32h1v1h-1v-1zM13,32h6v1h-6v-1zM10,32h2v1h-2v-1zM0,32h7v1h-7v-1zM24,31h1v1h-1v-1zM21,31h1v1h-1v-1zM19,31h1v1h-1v-1zM16,31h2v1h-2v-1zM13,31h2v1h-2v-1zM11,31h1v1h-1v-1zM8,31h1v1h-1v-1zM6,31h1v1h-1v-1zM0,31h1v1h-1v-1zM32,30h1v1h-1v-1zM28,30h2v1h-2v-1zM23,30h3v1h-3v-1zM20,30h1v1h-1v-1zM15,30h2v1h-2v-1zM10,30h4v1h-4v-1zM6,30h1v1h-1v-1zM2,30h3v1h-3v-1zM0,30h1v1h-1v-1zM31,29h1v1h-1v-1zM28,29h1v1h-1v-1zM26,29h1v1h-1v-1zM23,29h2v1h-2v-1zM21,29h1v1h-1v-1zM18,29h2v1h-2v-1zM13,29h2v1h-2v-1zM8,29h1v1h-1v-1zM6,29h1v1h-1v-1zM2,29h3v1h-3v-1zM0,29h1v1h-1v-1zM24,28h6v1h-6v-1zM21,28h2v1h-2v-1zM19,28h1v1h-1v-1zM16,28h2v1h-2v-1zM12,28h2v1h-2v-1zM10,28h1v1h-1v-1zM6,28h1v1h-1v-1zM2,28h3v1h-3v-1zM0,28h1v1h-1v-1zM28,27h1v1h-1v-1zM24,27h1v1h-1v-1zM21,27h1v1h-1v-1zM15,27h3v1h-3v-1zM11,27h1v1h-1v-1zM8,27h2v1h-2v-1zM6,27h1v1h-1v-1zM0,27h1v1h-1v-1zM28,26h3v1h-3v-1zM26,26h1v1h-1v-1zM24,26h1v1h-1v-1zM17,26h1v1h-1v-1zM13,26h1v1h-1v-1zM10,26h2v1h-2v-1zM8,26h1v1h-1v-1zM0,26h7v1h-7v-1zM32,25h1v1h-1v-1zM28,25h2v1h-2v-1zM24,25h1v1h-1v-1zM16,25h5v1h-5v-1zM13,25h2v1h-2v-1zM8,25h4v1h-4v-1zM23,24h6v1h-6v-1zM18,24h4v1h-4v-1zM14,24h2v1h-2v-1zM12,24h1v1h-1v-1zM4,24h7v1h-7v-1zM2,24h1v1h-1v-1zM0,24h1v1h-1v-1zM27,23h3v1h-3v-1zM23,23h1v1h-1v-1zM17,23h5v1h-5v-1zM11,23h4v1h-4v-1zM8,23h1v1h-1v-1zM3,23h1v1h-1v-1zM1,23h1v1h-1v-1zM32,22h1v1h-1v-1zM30,22h1v1h-1v-1zM26,22h1v1h-1v-1zM24,22h1v1h-1v-1zM22,22h1v1h-1v-1zM17,22h4v1h-4v-1zM14,22h1v1h-1v-1zM9,22h2v1h-2v-1zM5,22h2v1h-2v-1zM0,22h4v1h-4v-1zM31,21h2v1h-2v-1zM26,21h2v1h-2v-1zM24,21h1v1h-1v-1zM20,21h2v1h-2v-1zM17,21h2v1h-2v-1zM12,21h1v1h-1v-1zM10,21h1v1h-1v-1zM7,21h1v1h-1v-1zM1,21h1v1h-1v-1zM31,20h2v1h-2v-1zM27,20h1v1h-1v-1zM23,20h3v1h-3v-1zM15,20h3v1h-3v-1zM12,20h1v1h-1v-1zM9,20h1v1h-1v-1zM6,20h1v1h-1v-1zM1,20h3v1h-3v-1zM31,19h2v1h-2v-1zM27,19h1v1h-1v-1zM24,19h2v1h-2v-1zM20,19h2v1h-2v-1zM18,19h1v1h-1v-1zM16,19h1v1h-1v-1zM11,19h3v1h-3v-1zM8,19h1v1h-1v-1zM5,19h1v1h-1v-1zM2,19h1v1h-1v-1zM30,18h3v1h-3v-1zM25,18h1v1h-1v-1zM21,18h2v1h-2v-1zM17,18h1v1h-1v-1zM12,18h2v1h-2v-1zM6,18h3v1h-3v-1zM29,17h1v1h-1v-1zM27,17h1v1h-1v-1zM20,17h4v1h-4v-1zM16,17h2v1h-2v-1zM14,17h1v1h-1v-1zM8,17h2v1h-2v-1zM5,17h1v1h-1v-1zM2,17h2v1h-2v-1zM0,17h1v1h-1v-1zM31,16h1v1h-1v-1zM28,16h2v1h-2v-1zM26,16h1v1h-1v-1zM24,16h1v1h-1v-1zM20,16h3v1h-3v-1zM17,16h1v1h-1v-1zM14,16h1v1h-1v-1zM12,16h1v1h-1v-1zM9,16h1v1h-1v-1zM5,16h2v1h-2v-1zM2,16h1v1h-1v-1zM0,16h1v1h-1v-1zM31,15h1v1h-1v-1zM28,15h1v1h-1v-1zM26,15h1v1h-1v-1zM20,15h4v1h-4v-1zM17,15h1v1h-1v-1zM15,15h1v1h-1v-1zM13,15h1v1h-1v-1zM11,15h1v1h-1v-1zM8,15h1v1h-1v-1zM4,15h2v1h-2v-1zM0,15h3v1h-3v-1zM30,14h2v1h-2v-1zM25,14h3v1h-3v-1zM23,14h1v1h-1v-1zM20,14h1v1h-1v-1zM15,14h3v1h-3v-1zM12,14h2v1h-2v-1zM6,14h2v1h-2v-1zM2,14h1v1h-1v-1zM0,14h1v1h-1v-1zM31,13h2v1h-2v-1zM28,13h2v1h-2v-1zM24,13h3v1h-3v-1zM21,13h1v1h-1v-1zM17,13h1v1h-1v-1zM14,13h2v1h-2v-1zM9,13h1v1h-1v-1zM7,13h1v1h-1v-1zM1,13h1v1h-1v-1zM31,12h2v1h-2v-1zM29,12h1v1h-1v-1zM26,12h2v1h-2v-1zM23,12h2v1h-2v-1zM19,12h2v1h-2v-1zM13,12h3v1h-3v-1zM10,12h2v1h-2v-1zM8,12h1v1h-1v-1zM3,12h4v1h-4v-1zM1,12h1v1h-1v-1zM28,11h2v1h-2v-1zM21,11h5v1h-5v-1zM17,11h1v1h-1v-1zM13,11h1v1h-1v-1zM10,11h2v1h-2v-1zM5,11h1v1h-1v-1zM0,11h3v1h-3v-1zM32,10h1v1h-1v-1zM30,10h1v1h-1v-1zM26,10h3v1h-3v-1zM24,10h1v1h-1v-1zM19,10h4v1h-4v-1zM17,10h1v1h-1v-1zM12,10h4v1h-4v-1zM10,10h1v1h-1v-1zM8,10h1v1h-1v-1zM4,10h3v1h-3v-1zM31,9h2v1h-2v-1zM24,9h4v1h-4v-1zM20,9h3v1h-3v-1zM14,9h1v1h-1v-1zM11,9h2v1h-2v-1zM7,9h2v1h-2v-1zM4,9h2v1h-2v-1zM0,9h1v1h-1v-1zM32,8h1v1h-1v-1zM29,8h2v1h-2v-1zM25,8h3v1h-3v-1zM23,8h1v1h-1v-1zM21,8h1v1h-1v-1zM19,8h1v1h-1v-1zM13,8h4v1h-4v-1zM5,8h4v1h-4v-1zM3,8h1v1h-1v-1zM1,8h1v1h-1v-1zM24,7h1v1h-1v-1zM15,7h7v1h-7v-1zM13,7h1v1h-1v-1zM11,7h1v1h-1v-1zM8,7h1v1h-1v-1zM26,6h7v1h-7v-1zM24,6h1v1h-1v-1zM22,6h1v1h-1v-1zM20,6h1v1h-1v-1zM18,6h1v1h-1v-1zM16,6h1v1h-1v-1zM14,6h1v1h-1v-1zM12,6h1v1h-1v-1zM10,6h1v1h-1v-1zM8,6h1v1h-1v-1zM0,6h7v1h-7v-1zM32,5h1v1h-1v-1zM26,5h1v1h-1v-1zM24,5h1v1h-1v-1zM22,5h1v1h-1v-1zM20,5h1v1h-1v-1zM17,5h2v1h-2v-1zM11,5h4v1h-4v-1zM8,5h1v1h-1v-1zM6,5h1v1h-1v-1zM0,5h1v1h-1v-1zM32,4h1v1h-1v-1zM28,4h3v1h-3v-1zM26,4h1v1h-1v-1zM21,4h3v1h-3v-1zM19,4h1v1h-1v-1zM16,4h2v1h-2v-1zM9,4h1v1h-1v-1zM6,4h1v1h-1v-1zM2,4h3v1h-3v-1zM0,4h1v1h-1v-1zM32,3h1v1h-1v-1zM28,3h3v1h-3v-1zM26,3h1v1h-1v-1zM24,3h1v1h-1v-1zM22,3h1v1h-1v-1zM19,3h1v1h-1v-1zM17,3h1v1h-1v-1zM15,3h1v1h-1v-1zM13,3h1v1h-1v-1zM11,3h1v1h-1v-1zM8,3h2v1h-2v-1zM6,3h1v1h-1v-1zM2,3h3v1h-3v-1zM0,3h1v1h-1v-1zM32,2h1v1h-1v-1zM28,2h3v1h-3v-1zM26,2h1v1h-1v-1zM23,2h2v1h-2v-1zM19,2h1v1h-1v-1zM17,2h1v1h-1v-1zM8,2h6v1h-6v-1zM6,2h1v1h-1v-1zM2,2h3v1h-3v-1zM0,2h1v1h-1v-1zM32,1h1v1h-1v-1zM26,1h1v1h-1v-1zM23,1h2v1h-2v-1zM20,1h1v1h-1v-1zM17,1h1v1h-1v-1zM15,1h1v1h-1v-1zM10,1h2v1h-2v-1zM6,1h1v1h-1v-1zM0,1h1v1h-1v-1zM26,0h7v1h-7v-1zM22,0h2v1h-2v-1zM18,0h2v1h-2v-1zM13,0h4v1h-4v-1zM10,0h2v1h-2v-1zM8,0h1v1h-1v-1zM0,0h7v1h-7v-1z"/></svg>