<!--

https://github.com/datalog/qrcode-svg

--><svg viewBox="0 0 37 37" width="256" height="256" fill="#000000" shape-rendering="crispEdges" xmlns="http://www.w3.org/2000/svg" version="1.1"><path transform="matrix(1,0,0,1,4,4)" d="M27,28h1v1h-1v-1zM25,28h1v1h-1v-1zM23,28h1v1h-1v-1zM20,28h2v1h-2v-1zM17,28h1v1h-1v-1zM15,28h1v1h-1v-1zM13,28h1v1h-1v-1zM11,28h1v1h-1v-1zM9,28h1v1h-1v-1zM0,28h7v1h-7v-1zM27,27h1v1h-1v-1zM23,27h1v1h-1v-1zM19,27h2v1h-2v-1zM16,27h2v1h-2v-1zM14,27h1v1h-1v-1zM11,27h2v1h-2v-1zM8,27h2v1h-2v-1zM6,27h1v1h-1v-1zM0,27h1v1h-1v-1zM28,26h1v1h-1v-1zM26,26h1v1h-1v-1zM24,26h1v1h-1v-1zM21,26h1v1h-1v-1zM19,26h1v1h-1v-1zM14,26h3v1h-3v-1zM11,26h1v1h-1v-1zM9,26h1v1h-1v-1zM6,26h1v1h-1v-1zM2,26h3v1h-3v-1zM0,26h1v1h-1v-1zM28,25h1v1h-1v-1zM24,25h1v1h-1v-1zM22,25h1v1h-1v-1zM13,25h3v1h-3v-1zM11,25h1v1h-1v-1zM8,25h1v1h-1v-1zM6,25h1v1h-1v-1zM2,25h3v1h-3v-1zM0,25h1v1h-1v-1zM28,24h1v1h-1v-1zM20,24h5v1h-5v-1zM18,24h1v1h-1v-1zM15,24h2v1h-2v-1zM9,24h1v1h-1v-1zM6,24h1v1h-1v-1zM2,24h3v1h-3v-1zM0,24h1v1h-1v-1zM26,23h2v1h-2v-1zM24,23h1v1h-1v-1zM20,23h1v1h-1v-1zM16,23h1v1h-1v-1zM11,23h3v1h-3v-1zM8,23h2v1h-2v-1zM6,23h1v1h-1v-1zM0,23h1v1h-1v-1zM26,22h2v1h-2v-1zM24,22h1v1h-1v-1zM22,22h1v1h-1v-1zM20,22h1v1h-1v-1zM17,22h1v1h-1v-1zM10,22h5v1h-5v-1zM8,22h1v1h-1v-1zM0,22h7v1h-7v-1zM24,21h5v1h-5v-1zM19,21h2v1h-2v-1zM15,21h3v1h-3v-1zM12,21h2v1h-2v-1zM8,21h1v1h-1v-1zM26,20h2v1h-2v-1zM19,20h6v1h-6v-1zM16,20h1v1h-1v-1zM12,20h3v1h-3v-1zM9,20h2v1h-2v-1zM6,20h2v1h-2v-1zM4,20h1v1h-1v-1zM2,20h1v1h-1v-1zM0,20h1v1h-1v-1zM27,19h1v1h-1v-1zM24,19h2v1h-2v-1zM20,19h2v1h-2v-1zM11,19h8v1h-8v-1zM8,19h1v1h-1v-1zM3,19h3v1h-3v-1zM25,18h4v1h-4v-1zM20,18h1v1h-1v-1zM18,18h1v1h-1v-1zM12,18h2v1h-2v-1zM9,18h2v1h-2v-1zM5,18h2v1h-2v-1zM0,18h1v1h-1v-1zM25,17h4v1h-4v-1zM22,17h2v1h-2v-1zM18,17h1v1h-1v-1zM15,17h1v1h-1v-1zM7,17h3v1h-3v-1zM1,17h4v1h-4v-1zM25,16h1v1h-1v-1zM20,16h2v1h-2v-1zM16,16h2v1h-2v-1zM13,16h1v1h-1v-1zM11,16h1v1h-1v-1zM9,16h1v1h-1v-1zM6,16h1v1h-1v-1zM3,16h1v1h-1v-1zM1,16h1v1h-1v-1zM28,15h1v1h-1v-1zM21,15h2v1h-2v-1zM17,15h3v1h-3v-1zM14,15h1v1h-1v-1zM12,15h1v1h-1v-1zM9,15h2v1h-2v-1zM5,15h1v1h-1v-1zM1,15h1v1h-1v-1zM27,14h2v1h-2v-1zM22,14h4v1h-4v-1zM20,14h1v1h-1v-1zM16,14h2v1h-2v-1zM10,14h2v1h-2v-1zM6,14h1v1h-1v-1zM1,14h2v1h-2v-1zM19,13h2v1h-2v-1zM16,13h2v1h-2v-1zM9,13h3v1h-3v-1zM7,13h1v1h-1v-1zM5,13h1v1h-1v-1zM2,13h2v1h-2v-1zM0,13h1v1h-1v-1zM27,12h1v1h-1v-1zM22,12h1v1h-1v-1zM20,12h1v1h-1v-1zM17,12h1v1h-1v-1zM11,12h2v1h-2v-1zM8,12h2v1h-2v-1zM3,12h4v1h-4v-1zM0,12h1v1h-1v-1zM26,11h1v1h-1v-1zM22,11h2v1h-2v-1zM18,11h3v1h-3v-1zM15,11h2v1h-2v-1zM13,11h1v1h-1v-1zM10,11h2v1h-2v-1zM8,11h1v1h-1v-1zM4,11h2v1h-2v-1zM0,11h1v1h-1v-1zM27,10h1v1h-1v-1zM21,10h5v1h-5v-1zM19,10h1v1h-1v-1zM16,10h1v1h-1v-1zM12,10h2v1h-2v-1zM10,10h1v1h-1v-1zM6,10h2v1h-2v-1zM4,10h1v1h-1v-1zM2,10h1v1h-1v-1zM27,9h2v1h-2v-1zM25,9h1v1h-1v-1zM21,9h2v1h-2v-1zM15,9h1v1h-1v-1zM10,9h4v1h-4v-1zM8,9h1v1h-1v-1zM4,9h1v1h-1v-1zM0,9h1v1h-1v-1zM28,8h1v1h-1v-1zM25,8h2v1h-2v-1zM21,8h3v1h-3v-1zM19,8h1v1h-1v-1zM14,8h3v1h-3v-1zM5,8h7v1h-7v-1zM3,8h1v1h-1v-1zM1,8h1v1h-1v-1zM20,7h1v1h-1v-1zM17,7h1v1h-1v-1zM15,7h1v1h-1v-1zM11,7h1v1h-1v-1zM8,7h1v1h-1v-1zM22,6h7v1h-7v-1zM20,6h1v1h-1v-1zM18,6h1v1h-1v-1zM16,6h1v1h-1v-1zM14,6h1v1h-1v-1zM12,6h1v1h-1v-1zM10,6h1v1h-1v-1zM8,6h1v1h-1v-1zM0,6h7v1h-7v-1zM28,5h1v1h-1v-1zM22,5h1v1h-1v-1zM18,5h3v1h-3v-1zM8,5h4v1h-4v-1zM6,5h1v1h-1v-1zM0,5h1v1h-1v-1zM28,4h1v1h-1v-1zM24,4h3v1h-3v-1zM22,4h1v1h-1v-1zM18,4h1v1h-1v-1zM14,4h3v1h-3v-1zM9,4h3v1h-3v-1zM6,4h1v1h-1v-1zM2,4h3v1h-3v-1zM0,4h1v1h-1v-1zM28,3h1v1h-1v-1zM24,3h3v1h-3v-1zM22,3h1v1h-1v-1zM18,3h1v1h-1v-1zM16,3h1v1h-1v-1zM14,3h1v1h-1v-1zM8,3h5v1h-5v-1zM6,3h1v1h-1v-1zM2,3h3v1h-3v-1zM0,3h1v1h-1v-1zM28,2h1v1h-1v-1zM24,2h3v1h-3v-1zM22,2h1v1h-1v-1zM15,2h6v1h-6v-1zM8,2h1v1h-1v-1zM6,2h1v1h-1v-1zM2,2h3v1h-3v-1zM0,2h1v1h-1v-1zM28,1h1v1h-1v-1zM22,1h1v1h-1v-1zM17,1h2v1h-2v-1zM13,1h1v1h-1v-1zM9,1h1v1h-1v-1zM6,1h1v1h-1v-1zM0,1h1v1h-1v-1zM22,0h7v1h-7v-1zM17,0h3v1h-3v-1zM10,0h4v1h-4v-1zM8,0h1v1h-1v-1zM0,0h7v1h-7v-1z"/></svg>