<!--

https://github.com/datalog/qrcode-svg

--><svg viewBox="0 0 33 33" width="256" height="256" fill="#000000" shape-rendering="crispEdges" xmlns="http://www.w3.org/2000/svg" version="1.1"><path transform="matrix(1,0,0,1,4,4)" d="M24,24h1v1h-1v-1zM21,24h1v1h-1v-1zM16,24h2v1h-2v-1zM10,24h4v1h-4v-1zM8,24h1v1h-1v-1zM0,24h7v1h-7v-1zM22,23h3v1h-3v-1zM17,23h4v1h-4v-1zM10,23h4v1h-4v-1zM6,23h1v1h-1v-1zM0,23h1v1h-1v-1zM20,22h5v1h-5v-1zM16,22h2v1h-2v-1zM13,22h1v1h-1v-1zM11,22h1v1h-1v-1zM9,22h1v1h-1v-1zM6,22h1v1h-1v-1zM2,22h3v1h-3v-1zM0,22h1v1h-1v-1zM23,21h2v1h-2v-1zM17,21h2v1h-2v-1zM12,21h3v1h-3v-1zM8,21h3v1h-3v-1zM6,21h1v1h-1v-1zM2,21h3v1h-3v-1zM0,21h1v1h-1v-1zM23,20h2v1h-2v-1zM15,20h6v1h-6v-1zM13,20h1v1h-1v-1zM11,20h1v1h-1v-1zM8,20h2v1h-2v-1zM6,20h1v1h-1v-1zM2,20h3v1h-3v-1zM0,20h1v1h-1v-1zM20,19h1v1h-1v-1zM13,19h4v1h-4v-1zM11,19h1v1h-1v-1zM8,19h2v1h-2v-1zM6,19h1v1h-1v-1zM0,19h1v1h-1v-1zM24,18h1v1h-1v-1zM20,18h1v1h-1v-1zM18,18h1v1h-1v-1zM16,18h1v1h-1v-1zM12,18h1v1h-1v-1zM10,18h1v1h-1v-1zM8,18h1v1h-1v-1zM0,18h7v1h-7v-1zM22,17h2v1h-2v-1zM20,17h1v1h-1v-1zM16,17h1v1h-1v-1zM14,17h1v1h-1v-1zM10,17h2v1h-2v-1zM8,17h1v1h-1v-1zM22,16h2v1h-2v-1zM15,16h6v1h-6v-1zM11,16h3v1h-3v-1zM8,16h1v1h-1v-1zM6,16h1v1h-1v-1zM4,16h1v1h-1v-1zM2,16h1v1h-1v-1zM0,16h1v1h-1v-1zM24,15h1v1h-1v-1zM21,15h2v1h-2v-1zM17,15h3v1h-3v-1zM12,15h1v1h-1v-1zM8,15h1v1h-1v-1zM2,15h3v1h-3v-1zM0,15h1v1h-1v-1zM20,14h5v1h-5v-1zM18,14h1v1h-1v-1zM13,14h3v1h-3v-1zM10,14h1v1h-1v-1zM8,14h1v1h-1v-1zM6,14h1v1h-1v-1zM0,14h4v1h-4v-1zM23,13h1v1h-1v-1zM20,13h1v1h-1v-1zM12,13h5v1h-5v-1zM10,13h1v1h-1v-1zM4,13h1v1h-1v-1zM0,13h3v1h-3v-1zM24,12h1v1h-1v-1zM18,12h2v1h-2v-1zM15,12h2v1h-2v-1zM10,12h2v1h-2v-1zM6,12h3v1h-3v-1zM3,12h1v1h-1v-1zM21,11h4v1h-4v-1zM15,11h3v1h-3v-1zM8,11h5v1h-5v-1zM5,11h1v1h-1v-1zM3,11h1v1h-1v-1zM24,10h1v1h-1v-1zM21,10h1v1h-1v-1zM17,10h3v1h-3v-1zM15,10h1v1h-1v-1zM11,10h2v1h-2v-1zM5,10h4v1h-4v-1zM2,10h2v1h-2v-1zM19,9h5v1h-5v-1zM17,9h1v1h-1v-1zM14,9h2v1h-2v-1zM10,9h3v1h-3v-1zM3,9h1v1h-1v-1zM0,9h1v1h-1v-1zM22,8h3v1h-3v-1zM20,8h1v1h-1v-1zM17,8h1v1h-1v-1zM14,8h2v1h-2v-1zM10,8h1v1h-1v-1zM3,8h6v1h-6v-1zM0,8h1v1h-1v-1zM16,7h1v1h-1v-1zM13,7h2v1h-2v-1zM9,7h2v1h-2v-1zM18,6h7v1h-7v-1zM16,6h1v1h-1v-1zM14,6h1v1h-1v-1zM12,6h1v1h-1v-1zM10,6h1v1h-1v-1zM8,6h1v1h-1v-1zM0,6h7v1h-7v-1zM24,5h1v1h-1v-1zM18,5h1v1h-1v-1zM13,5h2v1h-2v-1zM10,5h1v1h-1v-1zM6,5h1v1h-1v-1zM0,5h1v1h-1v-1zM24,4h1v1h-1v-1zM20,4h3v1h-3v-1zM18,4h1v1h-1v-1zM16,4h1v1h-1v-1zM10,4h5v1h-5v-1zM8,4h1v1h-1v-1zM6,4h1v1h-1v-1zM2,4h3v1h-3v-1zM0,4h1v1h-1v-1zM24,3h1v1h-1v-1zM20,3h3v1h-3v-1zM18,3h1v1h-1v-1zM12,3h5v1h-5v-1zM10,3h1v1h-1v-1zM6,3h1v1h-1v-1zM2,3h3v1h-3v-1zM0,3h1v1h-1v-1zM24,2h1v1h-1v-1zM20,2h3v1h-3v-1zM18,2h1v1h-1v-1zM11,2h5v1h-5v-1zM8,2h1v1h-1v-1zM6,2h1v1h-1v-1zM2,2h3v1h-3v-1zM0,2h1v1h-1v-1zM24,1h1v1h-1v-1zM18,1h1v1h-1v-1zM12,1h3v1h-3v-1zM8,1h1v1h-1v-1zM6,1h1v1h-1v-1zM0,1h1v1h-1v-1zM18,0h7v1h-7v-1zM13,0h2v1h-2v-1zM11,0h1v1h-1v-1zM8,0h2v1h-2v-1zM0,0h7v1h-7v-1z"/></svg>