<!--

https://github.com/datalog/qrcode-svg

--><svg viewBox="0 0 45 45" width="256" height="256" fill="#000000" shape-rendering="crispEdges" xmlns="http://www.w3.org/2000/svg" version="1.1"><path transform="matrix(1,0,0,1,4,4)" d="M32,36h5v1h-5v-1zM29,36h1v1h-1v-1zM25,36h3v1h-3v-1zM22,36h2v1h-2v-1zM19,36h1v1h-1v-1zM15,36h3v1h-3v-1zM11,36h1v1h-1v-1zM8,36h1v1h-1v-1zM0,36h7v1h-7v-1zM36,35h1v1h-1v-1zM32,35h1v1h-1v-1zM30,35h1v1h-1v-1zM26,35h3v1h-3v-1zM24,35h1v1h-1v-1zM21,35h2v1h-2v-1zM15,35h2v1h-2v-1zM10,35h1v1h-1v-1zM6,35h1v1h-1v-1zM0,35h1v1h-1v-1zM35,34h2v1h-2v-1zM25,34h4v1h-4v-1zM21,34h1v1h-1v-1zM15,34h1v1h-1v-1zM12,34h1v1h-1v-1zM8,34h1v1h-1v-1zM6,34h1v1h-1v-1zM2,34h3v1h-3v-1zM0,34h1v1h-1v-1zM35,33h2v1h-2v-1zM32,33h2v1h-2v-1zM29,33h2v1h-2v-1zM27,33h1v1h-1v-1zM25,33h1v1h-1v-1zM23,33h1v1h-1v-1zM18,33h4v1h-4v-1zM12,33h4v1h-4v-1zM8,33h3v1h-3v-1zM6,33h1v1h-1v-1zM2,33h3v1h-3v-1zM0,33h1v1h-1v-1zM34,32h3v1h-3v-1zM24,32h9v1h-9v-1zM22,32h1v1h-1v-1zM17,32h1v1h-1v-1zM15,32h1v1h-1v-1zM12,32h2v1h-2v-1zM8,32h3v1h-3v-1zM6,32h1v1h-1v-1zM2,32h3v1h-3v-1zM0,32h1v1h-1v-1zM35,31h2v1h-2v-1zM32,31h2v1h-2v-1zM28,31h1v1h-1v-1zM26,31h1v1h-1v-1zM19,31h6v1h-6v-1zM11,31h1v1h-1v-1zM8,31h1v1h-1v-1zM6,31h1v1h-1v-1zM0,31h1v1h-1v-1zM34,30h3v1h-3v-1zM32,30h1v1h-1v-1zM30,30h1v1h-1v-1zM28,30h1v1h-1v-1zM20,30h1v1h-1v-1zM12,30h4v1h-4v-1zM9,30h2v1h-2v-1zM0,30h7v1h-7v-1zM35,29h1v1h-1v-1zM32,29h2v1h-2v-1zM28,29h1v1h-1v-1zM23,29h1v1h-1v-1zM17,29h5v1h-5v-1zM8,29h4v1h-4v-1zM36,28h1v1h-1v-1zM28,28h7v1h-7v-1zM25,28h2v1h-2v-1zM22,28h2v1h-2v-1zM17,28h1v1h-1v-1zM14,28h1v1h-1v-1zM10,28h3v1h-3v-1zM8,28h1v1h-1v-1zM5,28h2v1h-2v-1zM2,28h2v1h-2v-1zM0,28h1v1h-1v-1zM35,27h2v1h-2v-1zM30,27h1v1h-1v-1zM28,27h1v1h-1v-1zM26,27h1v1h-1v-1zM20,27h4v1h-4v-1zM16,27h1v1h-1v-1zM13,27h1v1h-1v-1zM9,27h3v1h-3v-1zM7,27h1v1h-1v-1zM2,27h3v1h-3v-1zM0,27h1v1h-1v-1zM24,26h13v1h-13v-1zM20,26h1v1h-1v-1zM17,26h1v1h-1v-1zM13,26h1v1h-1v-1zM8,26h3v1h-3v-1zM4,26h3v1h-3v-1zM2,26h1v1h-1v-1zM0,26h1v1h-1v-1zM33,25h1v1h-1v-1zM31,25h1v1h-1v-1zM28,25h2v1h-2v-1zM22,25h4v1h-4v-1zM18,25h3v1h-3v-1zM15,25h2v1h-2v-1zM12,25h2v1h-2v-1zM2,25h1v1h-1v-1zM0,25h1v1h-1v-1zM36,24h1v1h-1v-1zM34,24h1v1h-1v-1zM29,24h4v1h-4v-1zM24,24h4v1h-4v-1zM22,24h1v1h-1v-1zM17,24h1v1h-1v-1zM11,24h1v1h-1v-1zM8,24h1v1h-1v-1zM0,24h7v1h-7v-1zM35,23h1v1h-1v-1zM26,23h7v1h-7v-1zM20,23h5v1h-5v-1zM18,23h1v1h-1v-1zM14,23h3v1h-3v-1zM12,23h1v1h-1v-1zM10,23h1v1h-1v-1zM8,23h1v1h-1v-1zM3,23h3v1h-3v-1zM35,22h2v1h-2v-1zM26,22h8v1h-8v-1zM20,22h2v1h-2v-1zM14,22h4v1h-4v-1zM10,22h3v1h-3v-1zM5,22h3v1h-3v-1zM3,22h1v1h-1v-1zM0,22h1v1h-1v-1zM35,21h1v1h-1v-1zM33,21h1v1h-1v-1zM28,21h2v1h-2v-1zM25,21h1v1h-1v-1zM23,21h1v1h-1v-1zM16,21h4v1h-4v-1zM14,21h1v1h-1v-1zM12,21h1v1h-1v-1zM10,21h1v1h-1v-1zM8,21h1v1h-1v-1zM4,21h1v1h-1v-1zM2,21h1v1h-1v-1zM34,20h1v1h-1v-1zM32,20h1v1h-1v-1zM29,20h2v1h-2v-1zM27,20h1v1h-1v-1zM22,20h4v1h-4v-1zM17,20h1v1h-1v-1zM15,20h1v1h-1v-1zM11,20h1v1h-1v-1zM3,20h6v1h-6v-1zM36,19h1v1h-1v-1zM29,19h3v1h-3v-1zM26,19h1v1h-1v-1zM20,19h4v1h-4v-1zM15,19h1v1h-1v-1zM9,19h3v1h-3v-1zM7,19h1v1h-1v-1zM5,19h1v1h-1v-1zM2,19h1v1h-1v-1zM0,19h1v1h-1v-1zM35,18h2v1h-2v-1zM33,18h1v1h-1v-1zM26,18h2v1h-2v-1zM18,18h1v1h-1v-1zM15,18h2v1h-2v-1zM13,18h1v1h-1v-1zM10,18h2v1h-2v-1zM6,18h2v1h-2v-1zM1,18h2v1h-2v-1zM35,17h1v1h-1v-1zM33,17h1v1h-1v-1zM31,17h1v1h-1v-1zM28,17h1v1h-1v-1zM25,17h1v1h-1v-1zM23,17h1v1h-1v-1zM21,17h1v1h-1v-1zM18,17h2v1h-2v-1zM13,17h3v1h-3v-1zM11,17h1v1h-1v-1zM7,17h2v1h-2v-1zM3,17h3v1h-3v-1zM34,16h3v1h-3v-1zM32,16h1v1h-1v-1zM29,16h2v1h-2v-1zM25,16h3v1h-3v-1zM22,16h1v1h-1v-1zM15,16h5v1h-5v-1zM10,16h1v1h-1v-1zM4,16h5v1h-5v-1zM2,16h1v1h-1v-1zM36,15h1v1h-1v-1zM31,15h2v1h-2v-1zM29,15h1v1h-1v-1zM26,15h1v1h-1v-1zM23,15h1v1h-1v-1zM20,15h2v1h-2v-1zM11,15h3v1h-3v-1zM8,15h1v1h-1v-1zM5,15h1v1h-1v-1zM1,15h3v1h-3v-1zM36,14h1v1h-1v-1zM30,14h4v1h-4v-1zM24,14h4v1h-4v-1zM20,14h3v1h-3v-1zM15,14h1v1h-1v-1zM12,14h1v1h-1v-1zM6,14h5v1h-5v-1zM0,14h3v1h-3v-1zM31,13h1v1h-1v-1zM23,13h3v1h-3v-1zM16,13h5v1h-5v-1zM9,13h5v1h-5v-1zM7,13h1v1h-1v-1zM4,13h2v1h-2v-1zM1,13h2v1h-2v-1zM34,12h3v1h-3v-1zM32,12h1v1h-1v-1zM29,12h2v1h-2v-1zM24,12h3v1h-3v-1zM22,12h1v1h-1v-1zM19,12h1v1h-1v-1zM17,12h1v1h-1v-1zM12,12h1v1h-1v-1zM10,12h1v1h-1v-1zM5,12h2v1h-2v-1zM1,12h1v1h-1v-1zM36,11h1v1h-1v-1zM32,11h1v1h-1v-1zM26,11h4v1h-4v-1zM24,11h1v1h-1v-1zM18,11h5v1h-5v-1zM16,11h1v1h-1v-1zM12,11h2v1h-2v-1zM10,11h1v1h-1v-1zM8,11h1v1h-1v-1zM3,11h1v1h-1v-1zM35,10h2v1h-2v-1zM29,10h3v1h-3v-1zM24,10h4v1h-4v-1zM20,10h2v1h-2v-1zM17,10h1v1h-1v-1zM12,10h3v1h-3v-1zM9,10h1v1h-1v-1zM6,10h2v1h-2v-1zM2,10h2v1h-2v-1zM34,9h2v1h-2v-1zM31,9h1v1h-1v-1zM28,9h1v1h-1v-1zM25,9h1v1h-1v-1zM23,9h1v1h-1v-1zM14,9h8v1h-8v-1zM11,9h1v1h-1v-1zM7,9h2v1h-2v-1zM4,9h1v1h-1v-1zM1,9h1v1h-1v-1zM30,8h5v1h-5v-1zM25,8h1v1h-1v-1zM22,8h2v1h-2v-1zM19,8h1v1h-1v-1zM17,8h1v1h-1v-1zM12,8h3v1h-3v-1zM10,8h1v1h-1v-1zM2,8h5v1h-5v-1zM0,8h1v1h-1v-1zM28,7h1v1h-1v-1zM23,7h1v1h-1v-1zM20,7h2v1h-2v-1zM18,7h1v1h-1v-1zM14,7h2v1h-2v-1zM8,7h3v1h-3v-1zM30,6h7v1h-7v-1zM28,6h1v1h-1v-1zM26,6h1v1h-1v-1zM24,6h1v1h-1v-1zM22,6h1v1h-1v-1zM20,6h1v1h-1v-1zM18,6h1v1h-1v-1zM16,6h1v1h-1v-1zM14,6h1v1h-1v-1zM12,6h1v1h-1v-1zM10,6h1v1h-1v-1zM8,6h1v1h-1v-1zM0,6h7v1h-7v-1zM36,5h1v1h-1v-1zM30,5h1v1h-1v-1zM27,5h1v1h-1v-1zM25,5h1v1h-1v-1zM20,5h1v1h-1v-1zM18,5h1v1h-1v-1zM14,5h3v1h-3v-1zM11,5h2v1h-2v-1zM8,5h1v1h-1v-1zM6,5h1v1h-1v-1zM0,5h1v1h-1v-1zM36,4h1v1h-1v-1zM32,4h3v1h-3v-1zM30,4h1v1h-1v-1zM28,4h1v1h-1v-1zM23,4h1v1h-1v-1zM18,4h4v1h-4v-1zM15,4h1v1h-1v-1zM8,4h6v1h-6v-1zM6,4h1v1h-1v-1zM2,4h3v1h-3v-1zM0,4h1v1h-1v-1zM36,3h1v1h-1v-1zM32,3h3v1h-3v-1zM30,3h1v1h-1v-1zM25,3h2v1h-2v-1zM22,3h1v1h-1v-1zM19,3h1v1h-1v-1zM15,3h3v1h-3v-1zM13,3h1v1h-1v-1zM8,3h2v1h-2v-1zM6,3h1v1h-1v-1zM2,3h3v1h-3v-1zM0,3h1v1h-1v-1zM36,2h1v1h-1v-1zM32,2h3v1h-3v-1zM30,2h1v1h-1v-1zM28,2h1v1h-1v-1zM26,2h1v1h-1v-1zM19,2h3v1h-3v-1zM14,2h3v1h-3v-1zM12,2h1v1h-1v-1zM10,2h1v1h-1v-1zM8,2h1v1h-1v-1zM6,2h1v1h-1v-1zM2,2h3v1h-3v-1zM0,2h1v1h-1v-1zM36,1h1v1h-1v-1zM30,1h1v1h-1v-1zM27,1h2v1h-2v-1zM25,1h1v1h-1v-1zM21,1h1v1h-1v-1zM18,1h1v1h-1v-1zM13,1h4v1h-4v-1zM9,1h3v1h-3v-1zM6,1h1v1h-1v-1zM0,1h1v1h-1v-1zM30,0h7v1h-7v-1zM28,0h1v1h-1v-1zM23,0h1v1h-1v-1zM19,0h3v1h-3v-1zM10,0h5v1h-5v-1zM0,0h7v1h-7v-1z"/></svg>