<svg width="493" height="140" viewBox="0 0 493 140" fill="none" xmlns="http://www.w3.org/2000/svg">
<path d="M224.843 117.887C223.307 117.887 222.087 117.481 221.183 116.667C220.279 115.764 219.737 114.679 219.556 113.414L204.781 26.7955C204.691 26.5244 204.646 26.2081 204.646 25.8466C204.646 25.1237 204.917 24.4911 205.459 23.9489C206.091 23.3163 206.769 23 207.492 23H224.301C226.831 23 228.232 23.9941 228.503 25.9822L237.314 78.848L247.074 47.6707C248.068 45.2307 249.559 44.0108 251.547 44.0108H261.307C263.566 44.0108 265.057 45.2307 265.78 47.6707L275.54 78.848L284.351 25.9822C284.622 23.9941 286.023 23 288.553 23H305.362C306.175 23 306.853 23.3163 307.395 23.9489C308.028 24.4911 308.344 25.1237 308.344 25.8466L308.208 26.7955L293.433 113.414C293.252 114.679 292.665 115.764 291.671 116.667C290.767 117.481 289.592 117.887 288.146 117.887H275.269C273.823 117.887 272.693 117.526 271.88 116.803C271.067 116.08 270.479 115.267 270.118 114.363L256.427 75.5947L242.736 114.363C241.923 116.713 240.251 117.887 237.721 117.887H224.843Z" fill="#F6F6F6"/>
<path d="M325.702 117.887C324.798 117.887 323.985 117.571 323.262 116.938C322.629 116.215 322.313 115.402 322.313 114.498V26.3888C322.313 25.3948 322.629 24.5815 323.262 23.9489C323.985 23.3163 324.798 23 325.702 23H362.573C374.411 23 383.628 25.7111 390.225 31.1332C396.913 36.465 400.256 44.0559 400.256 53.9062C400.256 60.232 398.765 65.6089 395.783 70.037C392.801 74.4651 388.689 77.8539 383.448 80.2035L402.019 113.55C402.29 114.092 402.425 114.589 402.425 115.041C402.425 115.764 402.109 116.441 401.476 117.074C400.934 117.616 400.302 117.887 399.579 117.887H381.55C378.929 117.887 377.077 116.667 375.992 114.227L360.539 84.4056H346.713V114.498C346.713 115.493 346.351 116.306 345.628 116.938C344.996 117.571 344.182 117.887 343.188 117.887H325.702ZM362.301 65.1571C366.458 65.1571 369.621 64.163 371.79 62.1749C373.959 60.0964 375.043 57.2498 375.043 53.635C375.043 50.0203 373.959 47.1737 371.79 45.0952C369.712 42.9263 366.549 41.8419 362.301 41.8419H346.713V65.1571H362.301Z" fill="#F6F6F6"/>
<path d="M440.118 117.887C439.214 117.887 438.4 117.571 437.678 116.938C437.045 116.215 436.729 115.402 436.729 114.498V85.3545L405.28 27.3377C405.009 26.5244 404.874 26.0274 404.874 25.8466C404.874 25.1237 405.145 24.4911 405.687 23.9489C406.32 23.3163 407.042 23 407.856 23H424.8C426.607 23 428.189 23.9489 429.544 25.8466L448.928 60.8194L468.448 25.8466C469.533 23.9489 471.114 23 473.193 23H490.137C490.95 23 491.628 23.3163 492.17 23.9489C492.712 24.4911 492.983 25.1237 492.983 25.8466C492.983 26.2985 492.893 26.7955 492.712 27.3377L461.264 85.3545V114.498C461.264 115.493 460.902 116.306 460.179 116.938C459.547 117.571 458.733 117.887 457.739 117.887H440.118Z" fill="#F6F6F6"/>
<path d="M9.99997 69.8228C4.47712 69.8228 -0.073479 65.3231 0.714834 59.8568C2.19609 49.5855 5.95526 39.7297 11.7672 31.0315C19.4394 19.5492 30.3442 10.5998 43.1027 5.31514C55.8611 0.0304279 69.9001 -1.35229 83.4444 1.34183C96.9886 4.03595 109.43 10.6859 119.195 20.4508C128.96 30.2157 135.61 42.6569 138.304 56.2011C140.998 69.7454 139.615 83.7844 134.33 96.5428C129.046 109.301 120.096 120.206 108.614 127.878C99.9158 133.69 90.06 137.449 79.7887 138.931C74.3224 139.719 69.8226 135.168 69.8226 129.646L69.8226 128.888C69.8226 123.365 74.3452 118.99 79.7537 117.872C85.9126 116.599 91.8006 114.147 97.0815 110.619C105.15 105.227 111.439 97.5645 115.152 88.5991C118.866 79.6337 119.838 69.7684 117.945 60.2508C116.051 50.7332 111.378 41.9907 104.517 35.1289C97.6548 28.2671 88.9123 23.5941 79.3947 21.701C69.8771 19.8078 60.0118 20.7794 51.0464 24.493C42.081 28.2066 34.4181 34.4953 29.0268 42.564C25.4983 47.8448 23.0465 53.7329 21.7735 59.8918C20.6556 65.3003 16.2808 69.8228 10.758 69.8228L9.99997 69.8228Z" fill="#FFC131"/>
<ellipse cx="69.9404" cy="69.8225" rx="18.2869" ry="18.2869" transform="rotate(180 69.9404 69.8225)" fill="#FFC131"/>
</svg>
