<!--

https://github.com/datalog/qrcode-svg

--><svg viewBox="0 0 41 41" width="256" height="256" fill="#000000" shape-rendering="crispEdges" xmlns="http://www.w3.org/2000/svg" version="1.1"><path transform="matrix(1,0,0,1,4,4)" d="M32,32h1v1h-1v-1zM24,32h6v1h-6v-1zM15,32h6v1h-6v-1zM9,32h2v1h-2v-1zM0,32h7v1h-7v-1zM26,31h4v1h-4v-1zM22,31h1v1h-1v-1zM19,31h2v1h-2v-1zM13,31h2v1h-2v-1zM8,31h3v1h-3v-1zM6,31h1v1h-1v-1zM0,31h1v1h-1v-1zM31,30h2v1h-2v-1zM27,30h2v1h-2v-1zM24,30h1v1h-1v-1zM21,30h1v1h-1v-1zM19,30h1v1h-1v-1zM17,30h1v1h-1v-1zM15,30h1v1h-1v-1zM12,30h1v1h-1v-1zM8,30h3v1h-3v-1zM6,30h1v1h-1v-1zM2,30h3v1h-3v-1zM0,30h1v1h-1v-1zM32,29h1v1h-1v-1zM27,29h2v1h-2v-1zM22,29h4v1h-4v-1zM18,29h3v1h-3v-1zM14,29h2v1h-2v-1zM12,29h1v1h-1v-1zM9,29h2v1h-2v-1zM6,29h1v1h-1v-1zM2,29h3v1h-3v-1zM0,29h1v1h-1v-1zM23,28h6v1h-6v-1zM21,28h1v1h-1v-1zM19,28h1v1h-1v-1zM15,28h2v1h-2v-1zM13,28h1v1h-1v-1zM10,28h2v1h-2v-1zM6,28h1v1h-1v-1zM2,28h3v1h-3v-1zM0,28h1v1h-1v-1zM31,27h1v1h-1v-1zM28,27h2v1h-2v-1zM23,27h2v1h-2v-1zM18,27h2v1h-2v-1zM16,27h1v1h-1v-1zM14,27h1v1h-1v-1zM6,27h1v1h-1v-1zM0,27h1v1h-1v-1zM28,26h5v1h-5v-1zM26,26h1v1h-1v-1zM24,26h1v1h-1v-1zM19,26h3v1h-3v-1zM17,26h1v1h-1v-1zM15,26h1v1h-1v-1zM13,26h1v1h-1v-1zM11,26h1v1h-1v-1zM0,26h7v1h-7v-1zM32,25h1v1h-1v-1zM28,25h1v1h-1v-1zM22,25h3v1h-3v-1zM17,25h4v1h-4v-1zM13,25h3v1h-3v-1zM8,25h1v1h-1v-1zM31,24h1v1h-1v-1zM23,24h7v1h-7v-1zM17,24h4v1h-4v-1zM12,24h4v1h-4v-1zM10,24h1v1h-1v-1zM6,24h3v1h-3v-1zM3,24h2v1h-2v-1zM0,24h2v1h-2v-1zM31,23h2v1h-2v-1zM28,23h2v1h-2v-1zM23,23h4v1h-4v-1zM20,23h1v1h-1v-1zM17,23h2v1h-2v-1zM12,23h1v1h-1v-1zM9,23h1v1h-1v-1zM3,23h1v1h-1v-1zM32,22h1v1h-1v-1zM26,22h5v1h-5v-1zM23,22h2v1h-2v-1zM18,22h4v1h-4v-1zM16,22h1v1h-1v-1zM14,22h1v1h-1v-1zM11,22h2v1h-2v-1zM6,22h1v1h-1v-1zM4,22h1v1h-1v-1zM0,22h2v1h-2v-1zM32,21h1v1h-1v-1zM29,21h1v1h-1v-1zM26,21h1v1h-1v-1zM22,21h2v1h-2v-1zM20,21h1v1h-1v-1zM11,21h5v1h-5v-1zM7,21h3v1h-3v-1zM5,21h1v1h-1v-1zM2,21h1v1h-1v-1zM26,20h1v1h-1v-1zM23,20h1v1h-1v-1zM18,20h3v1h-3v-1zM16,20h1v1h-1v-1zM13,20h2v1h-2v-1zM3,20h6v1h-6v-1zM31,19h2v1h-2v-1zM28,19h2v1h-2v-1zM22,19h4v1h-4v-1zM20,19h1v1h-1v-1zM14,19h2v1h-2v-1zM12,19h1v1h-1v-1zM10,19h1v1h-1v-1zM8,19h1v1h-1v-1zM2,19h3v1h-3v-1zM32,18h1v1h-1v-1zM29,18h2v1h-2v-1zM27,18h1v1h-1v-1zM21,18h3v1h-3v-1zM17,18h3v1h-3v-1zM14,18h2v1h-2v-1zM8,18h5v1h-5v-1zM6,18h1v1h-1v-1zM3,18h1v1h-1v-1zM0,18h1v1h-1v-1zM31,17h2v1h-2v-1zM29,17h1v1h-1v-1zM25,17h2v1h-2v-1zM21,17h3v1h-3v-1zM19,17h1v1h-1v-1zM15,17h3v1h-3v-1zM9,17h1v1h-1v-1zM7,17h1v1h-1v-1zM5,17h1v1h-1v-1zM1,17h1v1h-1v-1zM31,16h1v1h-1v-1zM26,16h2v1h-2v-1zM24,16h1v1h-1v-1zM20,16h1v1h-1v-1zM16,16h1v1h-1v-1zM14,16h1v1h-1v-1zM10,16h3v1h-3v-1zM6,16h2v1h-2v-1zM3,16h2v1h-2v-1zM0,16h1v1h-1v-1zM25,15h5v1h-5v-1zM22,15h1v1h-1v-1zM20,15h1v1h-1v-1zM8,15h2v1h-2v-1zM4,15h1v1h-1v-1zM0,15h1v1h-1v-1zM32,14h1v1h-1v-1zM30,14h1v1h-1v-1zM23,14h1v1h-1v-1zM21,14h1v1h-1v-1zM19,14h1v1h-1v-1zM14,14h4v1h-4v-1zM11,14h1v1h-1v-1zM9,14h1v1h-1v-1zM6,14h2v1h-2v-1zM0,14h3v1h-3v-1zM31,13h2v1h-2v-1zM25,13h3v1h-3v-1zM23,13h1v1h-1v-1zM16,13h1v1h-1v-1zM14,13h1v1h-1v-1zM12,13h1v1h-1v-1zM10,13h1v1h-1v-1zM3,13h3v1h-3v-1zM32,12h1v1h-1v-1zM25,12h2v1h-2v-1zM20,12h2v1h-2v-1zM16,12h2v1h-2v-1zM12,12h1v1h-1v-1zM5,12h4v1h-4v-1zM3,12h1v1h-1v-1zM1,12h1v1h-1v-1zM31,11h2v1h-2v-1zM26,11h4v1h-4v-1zM22,11h3v1h-3v-1zM19,11h2v1h-2v-1zM17,11h1v1h-1v-1zM15,11h1v1h-1v-1zM11,11h1v1h-1v-1zM7,11h3v1h-3v-1zM3,11h3v1h-3v-1zM32,10h1v1h-1v-1zM29,10h2v1h-2v-1zM26,10h1v1h-1v-1zM19,10h6v1h-6v-1zM16,10h1v1h-1v-1zM11,10h3v1h-3v-1zM8,10h2v1h-2v-1zM6,10h1v1h-1v-1zM3,10h2v1h-2v-1zM32,9h1v1h-1v-1zM29,9h1v1h-1v-1zM26,9h1v1h-1v-1zM19,9h6v1h-6v-1zM17,9h1v1h-1v-1zM14,9h2v1h-2v-1zM12,9h1v1h-1v-1zM8,9h1v1h-1v-1zM3,9h1v1h-1v-1zM0,9h2v1h-2v-1zM29,8h1v1h-1v-1zM26,8h2v1h-2v-1zM23,8h1v1h-1v-1zM20,8h1v1h-1v-1zM16,8h1v1h-1v-1zM11,8h1v1h-1v-1zM9,8h1v1h-1v-1zM6,8h1v1h-1v-1zM1,8h2v1h-2v-1zM24,7h1v1h-1v-1zM22,7h1v1h-1v-1zM18,7h3v1h-3v-1zM15,7h2v1h-2v-1zM8,7h6v1h-6v-1zM26,6h7v1h-7v-1zM24,6h1v1h-1v-1zM22,6h1v1h-1v-1zM20,6h1v1h-1v-1zM18,6h1v1h-1v-1zM16,6h1v1h-1v-1zM14,6h1v1h-1v-1zM12,6h1v1h-1v-1zM10,6h1v1h-1v-1zM8,6h1v1h-1v-1zM0,6h7v1h-7v-1zM32,5h1v1h-1v-1zM26,5h1v1h-1v-1zM24,5h1v1h-1v-1zM21,5h2v1h-2v-1zM17,5h3v1h-3v-1zM11,5h2v1h-2v-1zM8,5h2v1h-2v-1zM6,5h1v1h-1v-1zM0,5h1v1h-1v-1zM32,4h1v1h-1v-1zM28,4h3v1h-3v-1zM26,4h1v1h-1v-1zM22,4h2v1h-2v-1zM19,4h1v1h-1v-1zM6,4h1v1h-1v-1zM2,4h3v1h-3v-1zM0,4h1v1h-1v-1zM32,3h1v1h-1v-1zM28,3h3v1h-3v-1zM26,3h1v1h-1v-1zM21,3h4v1h-4v-1zM13,3h1v1h-1v-1zM10,3h1v1h-1v-1zM8,3h1v1h-1v-1zM6,3h1v1h-1v-1zM2,3h3v1h-3v-1zM0,3h1v1h-1v-1zM32,2h1v1h-1v-1zM28,2h3v1h-3v-1zM26,2h1v1h-1v-1zM20,2h5v1h-5v-1zM17,2h1v1h-1v-1zM15,2h1v1h-1v-1zM11,2h3v1h-3v-1zM9,2h1v1h-1v-1zM6,2h1v1h-1v-1zM2,2h3v1h-3v-1zM0,2h1v1h-1v-1zM32,1h1v1h-1v-1zM26,1h1v1h-1v-1zM24,1h1v1h-1v-1zM20,1h1v1h-1v-1zM16,1h1v1h-1v-1zM9,1h2v1h-2v-1zM6,1h1v1h-1v-1zM0,1h1v1h-1v-1zM26,0h7v1h-7v-1zM21,0h2v1h-2v-1zM16,0h3v1h-3v-1zM13,0h2v1h-2v-1zM10,0h1v1h-1v-1zM0,0h7v1h-7v-1z"/></svg>